<svg xmlns="http://www.w3.org/2000/svg" viewBox="0 0 512 512" width="512" height="512">
  <defs>
    <linearGradient id="shieldGrad" x1="0%" y1="0%" x2="100%" y2="100%">
      <stop offset="0%" stop-color="#1e293b"/>
      <stop offset="100%" stop-color="#0f172a"/>
    </linearGradient>
    <linearGradient id="borderGrad" x1="0%" y1="0%" x2="100%" y2="100%">
      <stop offset="0%" stop-color="#38bdf8"/>
      <stop offset="50%" stop-color="#3b82f6"/>
      <stop offset="100%" stop-color="#ef4444"/>
    </linearGradient>
    <linearGradient id="beaconGrad" x1="0%" y1="0%" x2="0%" y2="100%">
      <stop offset="0%" stop-color="#ef4444"/>
      <stop offset="100%" stop-color="#b91c1c"/>
    </linearGradient>
    <filter id="glow" x="-20%" y="-20%" width="140%" height="140%">
      <feGaussianBlur stdDeviation="8" result="blur"/>
      <feComposite in="SourceGraphic" in2="blur" operator="over"/>
    </filter>
  </defs>

  <!-- Background Shield -->
  <path d="M256 32 L430 96 C430 280 256 460 256 460 C256 460 82 280 82 96 Z" fill="url(#shieldGrad)" stroke="url(#borderGrad)" stroke-width="16" stroke-linejoin="round"/>

  <!-- Inner Campus Map Grid lines -->
  <path d="M140 180 Q256 220 372 180 M120 280 Q256 320 392 280 M256 120 L256 410" stroke="#334155" stroke-width="6" stroke-dasharray="8 8" fill="none"/>

  <!-- Radar Rings -->
  <circle cx="256" cy="250" r="100" stroke="#0284c7" stroke-width="4" stroke-opacity="0.5" fill="none"/>
  <circle cx="256" cy="250" r="60" stroke="#38bdf8" stroke-width="4" stroke-opacity="0.7" fill="none"/>

  <!-- Pin Marker / Beacon -->
  <path d="M256 170 C226 170 202 194 202 224 C202 268 256 330 256 330 C256 330 310 268 310 224 C310 194 286 170 256 170 Z" fill="url(#beaconGrad)" filter="url(#glow)"/>
  
  <!-- Pin Center Dot -->
  <circle cx="256" cy="224" r="18" fill="#ffffff"/>
  <circle cx="256" cy="224" r="9" fill="#ef4444"/>

  <!-- DHSGSU Badge Text / Star -->
  <polygon points="256,60 265,82 288,82 270,96 277,118 256,104 235,118 242,96 224,82 247,82" fill="#f59e0b"/>

  <!-- Security Cross / Star on Lower Shield -->
  <rect x="250" y="380" width="12" height="34" rx="4" fill="#38bdf8"/>
  <rect x="239" y="391" width="34" height="12" rx="4" fill="#38bdf8"/>
</svg>